Coordinates
version=1
nRows=58
nColumns=11
inDegrees=yes

Units are S.I. units (second, meters, Newtons, ...)
If the header above contains a line with 'inDegrees', this indicates whether rotational values are in degrees (yes) or radians (no).

endheader
time	pelvis_tilt	pelvis_tx	pelvis_ty	hip_flexion_l	hip_flexion_r	knee_angle_l	knee_angle_r	ankle_angle_l	ankle_angle_r	lumbar_extension
      1.17000000	      1.15648878	     -1.90811842	      0.90179011	     -6.74472937	     32.73243910	     -9.18977399	    -41.50839196	     11.10860613	      4.89265390	    -12.37124447
      1.18000000	      1.38133471	     -1.89951195	      0.90032380	     -7.65554043	     32.66576118	     -9.09973445	    -38.83600776	     11.50830248	      5.00695083	    -12.73527008
      1.19000000	      1.67167252	     -1.89008451	      0.89827260	     -8.71155703	     32.59161723	     -9.00650011	    -36.51073636	     12.25609422	      5.75582539	    -13.04303861
      1.20000000	      2.02413033	     -1.88092654	      0.89632445	     -9.71356587	     32.32697202	     -9.18285299	    -34.02422563	     13.03351670	      6.33858615	    -13.46349730
      1.21000000	      2.42281127	     -1.87128102	      0.89451597	    -10.90110450	     31.92439337	     -9.06417353	    -31.61657957	     13.54552040	      7.02530301	    -13.88463252
      1.22000000	      2.67132975	     -1.86159510	      0.89217395	    -11.88363776	     31.72096105	     -9.06628478	    -29.38035124	     14.17237906	      7.38382462	    -14.09188492
      1.23000000	      3.03394053	     -1.85162426	      0.88994514	    -12.98369449	     31.31428343	     -9.11348104	    -27.23468357	     14.82280986	      7.78361501	    -14.40362943
      1.24000000	      3.34833333	     -1.84158338	      0.88773035	    -14.05831103	     30.88515738	     -9.09877681	    -25.09444006	     15.22666350	      7.55113399	    -14.64944652
      1.25000000	      3.57923668	     -1.83140526	      0.88550625	    -15.02822873	     30.58043365	     -9.14286856	    -23.29873410	     15.69134070	      7.51497702	    -14.79170138
      1.26000000	      3.76226582	     -1.82101507	      0.88314506	    -15.94696271	     30.29144464	     -9.19838424	    -21.70968113	     16.15471392	      7.39096709	    -14.85247283
      1.27000000	      3.83882567	     -1.81038389	      0.88092800	    -16.73397115	     30.18079056	     -9.28074577	    -20.58931734	     16.50196730	      7.30774698	    -14.77766569
      1.28000000	      3.81847305	     -1.79981419	      0.87837236	    -17.38082006	     30.23345947	     -9.44424529	    -19.80667381	     16.90616240	      6.84194934	    -14.63031114
      1.29000000	      3.83042953	     -1.78882894	      0.87625860	    -18.05630051	     30.17513089	     -9.63838878	    -19.30469610	     17.14459966	      6.41677116	    -14.46323725
      1.30000000	      3.53957866	     -1.77797516	      0.87359706	    -18.33500010	     30.56372987	     -9.99365950	    -19.40995801	     17.07230313	      5.30840943	    -13.99892263
      1.31000000	      3.40738930	     -1.76679925	      0.87150346	    -18.73770290	     30.68628055	    -10.42157580	    -19.97246545	     16.89017352	      3.83205786	    -13.70079665
      1.32000000	      2.96104285	     -1.75613487	      0.86954243	    -18.62204888	     31.33178105	    -11.09608758	    -21.84326054	     16.82626063	      2.64787428	    -13.14787120
      1.33000000	      2.47825621	     -1.74521008	      0.86769450	    -18.42056960	     32.00180917	    -11.86278913	    -23.79394429	     16.45929752	      2.38946814	    -12.53604426
      1.34000000	      1.95845794	     -1.73431772	      0.86635933	    -18.13603095	     32.88924004	    -12.69309588	    -25.62691498	     15.38280437	      2.76726577	    -11.88971384
      1.35000000	      1.29961657	     -1.72352420	      0.86512906	    -17.62420614	     33.81922101	    -13.61255658	    -26.87382428	     14.71383509	      2.18859942	    -11.13336351
      1.36000000	      0.73863204	     -1.71249611	      0.86460435	    -17.18477302	     34.37897269	    -14.59287067	    -27.66933982	     13.66582913	      1.48211816	    -10.47608063
      1.37000000	      0.23133464	     -1.70160280	      0.86464561	    -16.67575167	     34.66337836	    -15.71609937	    -28.31517950	     12.51397164	      0.78430237	     -9.92603906
      1.38000000	     -0.29914691	     -1.69067520	      0.86505672	    -15.97943533	     34.68767351	    -17.09376971	    -28.68929943	     11.21441964	      0.08060722	     -9.34249125
      1.39000000	     -0.63407608	     -1.67954860	      0.86607076	    -15.36592484	     34.47022173	    -18.64210080	    -29.06964721	      9.58588164	      0.09221188	     -8.97554230
      1.40000000	     -0.96720835	     -1.66833983	      0.86732882	    -14.62025025	     34.15142726	    -20.34241059	    -29.24843789	      7.64719353	     -0.18410731	     -8.61977851
      1.41000000	     -1.22467200	     -1.65715905	      0.86894653	    -13.72893228	     33.62540584	    -22.46277879	    -29.22462069	      5.84060575	     -0.33063593	     -8.36997544
      1.42000000	     -1.46180197	     -1.64583655	      0.87075410	    -12.75507312	     33.05756317	    -24.53084233	    -29.27513728	      3.65227790	     -0.33624768	     -8.12355432
      1.43000000	     -1.68401253	     -1.63453957	      0.87262365	    -11.63502185	     32.39929116	    -26.87424164	    -29.19625927	      1.51851903	     -0.38351740	     -7.85002853
      1.44000000	     -1.91604880	     -1.62342214	      0.87453890	    -10.36131563	     31.78713798	    -29.46525505	    -29.07861790	     -0.82268858	     -0.32960741	     -7.56203503
      1.45000000	     -2.07661780	     -1.61219138	      0.87634870	     -9.08238970	     31.14752732	    -32.14679081	    -28.98529911	     -3.04981840	     -0.14610169	     -7.32286296
      1.46000000	     -2.17279265	     -1.60094105	      0.87826973	     -7.83882530	     30.47806463	    -34.64580839	    -28.95366794	     -5.65635222	     -0.01828574	     -7.10743844
      1.47000000	     -2.34982158	     -1.58995375	      0.87958985	     -6.27424965	     30.00571199	    -37.42002906	    -29.13520967	     -7.89274771	      0.36648387	     -6.81963483
      1.48000000	     -2.22211956	     -1.57835621	      0.88122350	     -5.17952046	     29.13998832	    -39.89590758	    -29.29117001	    -10.03022322	      1.14982076	     -6.72629511
      1.49000000	     -2.24451114	     -1.56754096	      0.88257537	     -3.64902648	     28.50572098	    -42.64616593	    -29.49067580	    -12.00777007	      1.74149607	     -6.55410727
      1.50000000	     -2.20729700	     -1.55648463	      0.88377099	     -2.11531567	     27.74854861	    -45.41129735	    -29.65527154	    -13.72885622	      2.52762310	     -6.37376795
      1.51000000	     -2.06326275	     -1.54535299	      0.88514270	     -0.66759408	     26.80248896	    -48.02257414	    -29.68162977	    -15.17725996	      3.21038719	     -6.27064591
      1.52000000	     -2.08331057	     -1.53463513	      0.88628730	      1.12502670	     26.05475309	    -50.74242689	    -29.69767702	    -16.03848688	      3.67381233	     -5.99766882
      1.53000000	     -1.91471003	     -1.52366600	      0.88788070	      2.69861079	     24.89552916	    -53.19606973	    -29.35972469	    -16.84188149	      4.22778868	     -5.93252603
      1.54000000	     -1.75983519	     -1.51311654	      0.88991846	      4.33459812	     23.70277074	    -55.38834192	    -28.91651128	    -17.58134724	      4.65776363	     -5.91013033
      1.55000000	     -1.60175142	     -1.50265039	      0.89216412	      6.05950433	     22.38071719	    -57.45999119	    -28.19011680	    -18.27801717	      4.91446231	     -5.91657940
      1.56000000	     -1.45413379	     -1.49229310	      0.89449662	      7.85739972	     21.01448479	    -59.36034968	    -27.35507969	    -18.85487421	      5.01121220	     -5.90750408
      1.57000000	     -1.26698847	     -1.48199612	      0.89700615	      9.62470903	     19.54201375	    -60.97307495	    -26.38055942	    -19.48387295	      4.99589165	     -5.95488485
      1.58000000	     -1.13987248	     -1.47184286	      0.89936203	     11.54346117	     18.10572693	    -62.57479130	    -25.33158368	    -19.63557145	      5.33212406	     -5.95180866
      1.59000000	     -0.91342674	     -1.46168103	      0.90187321	     13.35828103	     16.48468493	    -63.99022824	    -24.13075508	    -19.63932952	      5.39920882	     -6.02410843
      1.60000000	     -0.38509988	     -1.45152072	      0.90488499	     14.87085875	     14.50180457	    -65.29866896	    -22.85089943	    -19.13579102	      5.52761754	     -6.53692516
      1.61000000	     -0.27169969	     -1.44161715	      0.90693076	     16.93130968	     13.04287372	    -66.69260510	    -21.66356524	    -18.19916165	      5.55008519	     -6.56502923
      1.62000000	      0.33645480	     -1.43158822	      0.90963753	     18.39952636	     10.98185814	    -67.93012366	    -20.36480944	    -17.09401282	      5.70728980	     -7.15756895
      1.63000000	      0.79676311	     -1.42137413	      0.91166256	     20.02501996	      9.12726361	    -69.15641368	    -19.16127362	    -15.50542980	      5.68154848	     -7.61984018
      1.64000000	      1.11979526	     -1.41164175	      0.91313283	     21.86549773	      7.62756587	    -70.39744747	    -18.28512184	    -13.76627074	      5.90813683	     -7.98246433
      1.65000000	      1.74239909	     -1.40183974	      0.91467852	     23.30377567	      5.78764994	    -71.49686131	    -17.36510367	    -12.13091351	      6.23753081	     -8.72310696
      1.66000000	      2.30566760	     -1.39208524	      0.91603811	     24.76523101	      3.96142235	    -72.44549219	    -16.37163023	    -10.32407511	      6.41153322	     -9.39460476
      1.67000000	      2.96410777	     -1.38243299	      0.91717623	     26.06667236	      2.12321992	    -73.17930212	    -15.50737606	     -8.76201760	      6.49243604	    -10.19368256
      1.68000000	      3.53703160	     -1.37266548	      0.91795824	     27.34153124	      0.35978115	    -73.65255172	    -14.66608140	     -7.18742583	      6.88510741	    -10.88235686
      1.69000000	      4.17255740	     -1.36300485	      0.91878464	     28.41446751	     -1.47928630	    -73.77688832	    -13.80923476	     -5.06200621	      7.24747450	    -11.64004448
      1.70000000	      4.66267363	     -1.35330610	      0.91879956	     29.49162506	     -2.94535315	    -73.52798498	    -13.31204205	     -3.18375825	      7.58919428	    -12.25981438
      1.71000000	      5.16220278	     -1.34370251	      0.91907234	     30.36381983	     -4.55806531	    -72.69817752	    -12.54341643	     -1.63682079	      7.77760007	    -12.89346486
      1.72000000	      5.56773656	     -1.33416530	      0.91874470	     31.13905313	     -5.87026549	    -71.38653954	    -12.11461726	     -0.77910737	      7.89360619	    -13.43917761
      1.73000000	      5.96147227	     -1.32457150	      0.91863899	     31.59840028	     -7.11424303	    -69.39278902	    -11.95609397	     -0.00492073	      8.51773640	    -13.96089944
      1.74000000	      6.29703866	     -1.31493729	      0.91804924	     31.88415465	     -8.24798040	    -66.90978687	    -11.70202987	      0.39794754	      8.61307232	    -14.37412959
